<?xml version="1.0" encoding="utf-8"?>
<!-- Generator: Adobe Illustrator 16.0.0, SVG Export Plug-In . SVG Version: 6.00 Build 0)  -->
<!DOCTYPE svg PUBLIC "-//W3C//DTD SVG 1.1//EN" "http://www.w3.org/Graphics/SVG/1.1/DTD/svg11.dtd">
<svg version="1.1" id="Layer_1" xmlns="http://www.w3.org/2000/svg" xmlns:xlink="http://www.w3.org/1999/xlink" x="0px" y="0px"
	 width="100px" height="100px" viewBox="0 0 100 100" enable-background="new 0 0 100 100" xml:space="preserve">
<path fill="none" stroke="#4D4D4D" stroke-miterlimit="10" d="M50.756,16.638c-18.777,0-34,15.223-34,34s15.223,34,34,34
	c18.779,0,34-15.223,34-34S69.535,16.638,50.756,16.638z M69.843,51.362c0,2.66-2.155,4.819-4.819,4.819h-9.721v9.717
	c0,2.662-2.158,4.823-4.822,4.823h-0.048c-2.666,0-4.822-2.161-4.822-4.823v-9.717H35.199c-2.663,0-4.821-2.159-4.821-4.819v-0.054
	c0-2.663,2.158-4.822,4.821-4.822h10.412V36.076c0-2.664,2.156-4.824,4.822-4.824h0.048c2.664,0,4.822,2.16,4.822,4.824v10.411
	h9.721c2.664,0,4.819,2.159,4.819,4.822V51.362z"/>
</svg>
