<?xml version="1.0" encoding="utf-8"?>
<!-- Generator: Adobe Illustrator 16.0.0, SVG Export Plug-In . SVG Version: 6.00 Build 0)  -->
<!DOCTYPE svg PUBLIC "-//W3C//DTD SVG 1.1//EN" "http://www.w3.org/Graphics/SVG/1.1/DTD/svg11.dtd">
<svg version="1.1" id="Layer_1" xmlns="http://www.w3.org/2000/svg" xmlns:xlink="http://www.w3.org/1999/xlink" x="0px" y="0px"
	 width="100px" height="100px" viewBox="0 0 100 100" enable-background="new 0 0 100 100" xml:space="preserve">
<polygon fill="none" stroke="#4D4D4D" stroke-miterlimit="10" points="31.8,75.469 36.844,80.506 20,80.506 20,63.67 25.043,68.709 
	35.66,58.092 42.422,64.852 "/>
<polygon fill="none" stroke="#4D4D4D" stroke-miterlimit="10" points="64.34,58.092 57.586,64.852 68.203,75.469 63.164,80.506 
	79.998,80.506 80,63.67 74.961,68.709 "/>
<polygon fill="none" stroke="#4D4D4D" stroke-miterlimit="10" points="57.586,36.17 64.34,42.928 74.961,32.303 80,37.343 
	80,20.514 63.16,20.506 68.208,25.553 "/>
<polygon fill="none" stroke="#4D4D4D" stroke-miterlimit="10" points="36.844,20.506 20.012,20.506 20,37.35 25.043,32.303 
	35.663,42.928 42.426,36.162 31.804,25.553 "/>
<path fill="none" stroke="#4D4D4D" stroke-miterlimit="10" d="M50,43.178c-4.047,0-7.328,3.281-7.328,7.328
	c0,4.055,3.281,7.336,7.328,7.336s7.332-3.281,7.332-7.336C57.332,46.459,54.047,43.178,50,43.178z"/>
</svg>
