<?xml version="1.0" encoding="utf-8"?>
<!-- Generator: Adobe Illustrator 16.0.0, SVG Export Plug-In . SVG Version: 6.00 Build 0)  -->
<!DOCTYPE svg PUBLIC "-//W3C//DTD SVG 1.1//EN" "http://www.w3.org/Graphics/SVG/1.1/DTD/svg11.dtd">
<svg version="1.1" id="Layer_1" xmlns="http://www.w3.org/2000/svg" xmlns:xlink="http://www.w3.org/1999/xlink" x="0px" y="0px"
	 width="100px" height="100px" viewBox="0 0 100 100" enable-background="new 0 0 100 100" xml:space="preserve">
<path d="M66.633,64.581c-3.62-0.93-6.656-3.01-6.656-3.01c-0.448-0.255-0.064-2.561-0.064-2.561l-2.561-0.384
	c0-0.191-0.192-3.008-0.192-3.008c2.688-0.897,2.411-6.189,2.411-6.189c1.707,0.939,2.815-3.243,2.815-3.243
	c2.021-5.814-1.002-5.464-1.002-5.464c0.96-4.352,0-10.71,0-10.71c-1.346-11.779-22.054-8.067-18.949-4.354
	c-7.361-2.048-4.802,11.907-4.802,11.907l1.282,3.458c-2.52,1.62-0.769,3.584-0.684,5.846c0.125,3.336,2.176,2.646,2.176,2.646
	c0.127,5.507,2.859,6.23,2.859,6.23c0.511,3.458,0,3.159,0,3.159h-2.242c0.109,0.876-0.19,2.347-0.19,2.347
	c-2.865,1.266-3.477,2.009-6.317,3.244c-5.492,2.391-12.503,4.95-12.503,4.95c-1.88,0.484-3.017,1.433-3.705,2.354
	c9.099,5.251,19.67,8.272,30.962,8.272c11.804,0,22.83-3.293,32.2-8.993C79.754,68.674,72.71,66.14,66.633,64.581z"/>
<path d="M81.9,51.568c-0.36-0.205-0.052-2.05-0.052-2.05L79.8,49.211c0-0.152-0.153-2.406-0.153-2.406
	c2.15-0.717,1.928-4.951,1.928-4.951c1.367,0.751,2.254-2.594,2.254-2.594c1.617-4.653-0.803-4.372-0.803-4.372
	c0.769-3.482,0-8.569,0-8.569c-1.076-9.423-17.644-6.453-15.159-3.483c-3.722-1.036-4.272,3.041-4.175,6.183
	c0.073,0.655,0.16,1.558,0.219,2.593c0.063,0.467,0.115,0.749,0.115,0.749l1.025,2.767c-1.634,1.051-1.023,2.281-0.698,3.673
	c0.538,0.283,1.09,1.025,0.816,2.903c0.492,0.409,1.076,0.217,1.076,0.217c0.103,4.405,2.287,4.984,2.287,4.984
	c0.409,2.766,0,2.528,0,2.528h-1.793c0.086,0.7-0.153,1.876-0.153,1.876c-2.292,1.014-2.782,1.608-5.054,2.597
	c-0.686,0.298-1.4,0.599-2.119,0.896c0.051,0.773,0.106,1.628,0.106,1.731l2.561,0.384c0,0-0.384,2.306,0.064,2.561
	c0,0,3.036,2.08,6.656,3.01c3.872,0.993,8.133,2.383,11.163,3.881h8.856c3.17-2.559,6.08-5.418,8.68-8.545
	c-2.367-1.476-6.545-2.892-10.274-3.848C84.328,53.232,81.9,51.568,81.9,51.568z"/>
<path d="M38.625,53.977c-2.896-0.743-5.326-2.408-5.326-2.408c-0.359-0.205-0.051-2.05-0.051-2.05l-2.049-0.307
	c0-0.152-0.153-2.407-0.153-2.407c2.151-0.717,1.928-4.95,1.928-4.95c1.366,0.751,2.253-2.595,2.253-2.595
	c0.316-0.91,0.474-1.626,0.53-2.197l-0.59-1.592c0,0-0.029-0.159-0.071-0.43c-0.337-0.19-0.67-0.152-0.67-0.152
	c0.224-1.023,0.315-2.183,0.335-3.313c-0.022-0.527-0.031-1.076-0.018-1.634c-0.076-2.02-0.317-3.622-0.317-3.622
	c-1.077-9.422-17.645-6.453-15.16-3.482c-5.89-1.639-3.841,9.525-3.841,9.525l1.024,2.766c-2.015,1.296-0.613,2.867-0.545,4.677
	c0.1,2.668,1.741,2.117,1.741,2.117c0.102,4.405,2.287,4.983,2.287,4.983c0.41,2.766,0,2.528,0,2.528h-1.793
	c0.087,0.701-0.153,1.877-0.153,1.877c-2.292,1.014-2.781,1.608-5.053,2.596C8.539,55.819,2.93,57.867,2.93,57.867
	C2.778,57.906,2.64,57.953,2.5,58c2.562,3.057,5.422,5.858,8.531,8.369h11.146c2.543-0.964,6.494-2.498,9.875-3.969
	c2.839-1.234,3.45-1.978,6.315-3.244c0,0,0.3-1.471,0.192-2.347h2.242c0,0,0.407,0.231,0.126-2.197
	C40.153,54.385,39.38,54.17,38.625,53.977z"/>
</svg>
