<?xml version="1.0" encoding="utf-8"?>
<!-- Generator: Adobe Illustrator 16.0.0, SVG Export Plug-In . SVG Version: 6.00 Build 0)  -->
<!DOCTYPE svg PUBLIC "-//W3C//DTD SVG 1.1//EN" "http://www.w3.org/Graphics/SVG/1.1/DTD/svg11.dtd">
<svg version="1.1" id="Layer_1" xmlns="http://www.w3.org/2000/svg" xmlns:xlink="http://www.w3.org/1999/xlink" x="0px" y="0px"
	 width="100px" height="100px" viewBox="0 0 100 100" enable-background="new 0 0 100 100" xml:space="preserve">
<path fill="#2F92D0" d="M12.5,81.337v-6.765c0,0,0.44-4.153,5.441-5.441c0,0,8.055-2.94,14.362-5.687
	c3.263-1.419,3.965-2.271,7.256-3.726c0,0,0.343-1.689,0.22-2.695h2.574c0,0,0.587,0.343,0-3.629c0,0-3.138-0.831-3.284-7.155
	c0,0-2.356,0.793-2.5-3.04c-0.099-2.598-2.108-4.853,0.784-6.715l-1.471-3.971c0,0-2.94-16.029,5.515-13.676
	c-3.567-4.265,20.221-8.528,21.765,5c0,0,1.103,7.304,0,12.304c0,0,3.474-0.402,1.151,6.275c0,0-1.273,4.803-3.234,3.725
	c0,0,0.319,6.078-2.769,7.108c0,0,0.22,3.234,0.22,3.454l2.941,0.441c0,0-0.442,2.648,0.074,2.941c0,0,3.487,2.389,7.646,3.457
	c8.015,2.057,17.5,5.587,17.5,8.676c0,0,0.809,4.117,0.809,9.116H12.5z"/>
</svg>
