<?xml version="1.0" encoding="utf-8"?>
<!-- Generator: Adobe Illustrator 16.0.0, SVG Export Plug-In . SVG Version: 6.00 Build 0)  -->
<!DOCTYPE svg PUBLIC "-//W3C//DTD SVG 1.1//EN" "http://www.w3.org/Graphics/SVG/1.1/DTD/svg11.dtd">
<svg version="1.1" id="Layer_1" xmlns="http://www.w3.org/2000/svg" xmlns:xlink="http://www.w3.org/1999/xlink" x="0px" y="0px"
	 width="100px" height="100px" viewBox="0 0 100 100" enable-background="new 0 0 100 100" xml:space="preserve">
<path d="M12.5,81.338v-6.765c0,0,0.44-4.153,5.441-5.441c0,0,8.055-2.939,14.362-5.688c3.263-1.418,3.965-2.271,7.256-3.726
	c0,0,0.343-1.688,0.22-2.694h2.574c0,0,0.587,0.343,0-3.629c0,0-3.138-0.832-3.284-7.156c0,0-2.356,0.793-2.5-3.04
	c-0.099-2.598-2.108-4.853,0.784-6.715l-1.471-3.971c0,0-2.94-16.029,5.515-13.676c-3.567-4.265,20.221-8.528,21.765,5
	c0,0,1.104,7.304,0,12.304c0,0,3.475-0.402,1.15,6.275c0,0-1.272,4.803-3.233,3.725c0,0,0.319,6.078-2.769,7.108
	c0,0,0.219,3.233,0.219,3.454l2.941,0.441c0,0-0.441,2.647,0.074,2.94c0,0,3.487,2.39,7.646,3.457
	c8.015,2.058,17.5,5.587,17.5,8.676c0,0,0.809,4.117,0.809,9.116h-75V81.338z"/>
</svg>
