<?xml version="1.0" encoding="utf-8"?>
<!-- Generator: Adobe Illustrator 16.0.0, SVG Export Plug-In . SVG Version: 6.00 Build 0)  -->
<!DOCTYPE svg PUBLIC "-//W3C//DTD SVG 1.1//EN" "http://www.w3.org/Graphics/SVG/1.1/DTD/svg11.dtd">
<svg version="1.1" id="Layer_1" xmlns="http://www.w3.org/2000/svg" xmlns:xlink="http://www.w3.org/1999/xlink" x="0px" y="0px"
	 width="100px" height="100px" viewBox="0 0 100 100" enable-background="new 0 0 100 100" xml:space="preserve">
<path fill="#3092D0" d="M80.4,57.244h8.1V42.749h-8.1c-0.778-3.269-2.064-6.34-3.779-9.121l5.729-5.728L72.1,17.648l-5.729,5.728
	c-2.781-1.713-5.85-2.996-9.117-3.772v-8.106h-14.5v8.105c-3.27,0.777-6.341,2.061-9.121,3.776l-5.729-5.728L17.65,27.9l5.729,5.73
	c-1.715,2.782-3,5.85-3.779,9.119H11.5v14.499h8.101c0.779,3.272,2.064,6.344,3.779,9.125l-5.728,5.728L27.902,82.35l5.73-5.725
	c2.781,1.712,5.853,2.995,9.12,3.773v8.104h14.502v-8.104c3.266-0.778,6.336-2.062,9.115-3.773l5.728,5.725l10.253-10.249
	l-5.725-5.728c1.713-2.781,2.999-5.853,3.775-9.125L80.4,57.244L80.4,57.244L80.4,57.244z M49.999,66.258
	c-8.976,0-16.257-7.279-16.257-16.258c0-8.978,7.281-16.257,16.257-16.257c8.979,0,16.26,7.279,16.26,16.257
	C66.259,58.979,58.978,66.258,49.999,66.258z"/>
</svg>
