<?xml version="1.0" encoding="utf-8"?>
<!-- Generator: Adobe Illustrator 16.0.0, SVG Export Plug-In . SVG Version: 6.00 Build 0)  -->
<!DOCTYPE svg PUBLIC "-//W3C//DTD SVG 1.1//EN" "http://www.w3.org/Graphics/SVG/1.1/DTD/svg11.dtd">
<svg version="1.1" id="Layer_1" xmlns="http://www.w3.org/2000/svg" xmlns:xlink="http://www.w3.org/1999/xlink" x="0px" y="0px"
	 width="100px" height="100px" viewBox="0 0 100 100" enable-background="new 0 0 100 100" xml:space="preserve">
<path fill="none" stroke="#4D4D4D" stroke-miterlimit="10" d="M77.241,56.491h7.257V43.503h-7.257
	c-0.698-2.929-1.851-5.681-3.387-8.173l5.133-5.132l-9.185-9.187l-5.134,5.133c-2.492-1.535-5.241-2.684-8.169-3.38V15.5H43.507
	v7.262c-2.93,0.697-5.682,1.847-8.173,3.384l-5.133-5.133l-9.188,9.184l5.134,5.134c-1.537,2.493-2.688,5.243-3.386,8.172h-7.258
	v12.992h7.259c0.698,2.931,1.85,5.684,3.386,8.176l-5.133,5.134l9.185,9.183l5.134-5.13c2.492,1.534,5.245,2.684,8.172,3.382V84.5
	H56.5v-7.261c2.926-0.698,5.677-1.849,8.167-3.382l5.134,5.13l9.187-9.183l-5.13-5.134c1.535-2.492,2.688-5.245,3.384-8.176V56.491
	L77.241,56.491L77.241,56.491z M49.999,64.568c-8.043,0-14.567-6.522-14.567-14.568c0-8.045,6.524-14.567,14.567-14.567
	c8.047,0,14.57,6.522,14.57,14.567C64.569,58.046,58.046,64.568,49.999,64.568z"/>
</svg>
