<?xml version="1.0" encoding="utf-8"?>
<!-- Generator: Adobe Illustrator 16.0.0, SVG Export Plug-In . SVG Version: 6.00 Build 0)  -->
<!DOCTYPE svg PUBLIC "-//W3C//DTD SVG 1.1//EN" "http://www.w3.org/Graphics/SVG/1.1/DTD/svg11.dtd">
<svg version="1.1" id="Layer_1" xmlns="http://www.w3.org/2000/svg" xmlns:xlink="http://www.w3.org/1999/xlink" x="0px" y="0px"
	 width="100px" height="100px" viewBox="0 0 100 100" enable-background="new 0 0 100 100" xml:space="preserve">
<path fill="#FFFFFF" d="M0,0v100h100V0H0z M79.434,69.852c0.756,0.756,0.756,1.982,0,2.736l-6.844,6.846
	c-0.756,0.756-1.982,0.756-2.738,0L50,59.582L30.15,79.434c-0.756,0.756-1.983,0.756-2.739,0l-6.843-6.846
	c-0.757-0.754-0.757-1.98,0-2.736L40.418,50l-19.85-19.85c-0.757-0.756-0.757-1.983,0-2.738l6.843-6.844
	c0.756-0.757,1.983-0.757,2.739,0L50,40.418l19.852-19.85c0.756-0.757,1.982-0.757,2.738,0l6.844,6.844
	c0.756,0.755,0.756,1.981,0,2.738L59.582,50L79.434,69.852z"/>
<path display="none" fill="none" stroke="#4D4D4D" stroke-miterlimit="10" d="M59.582,50l19.852-19.85
	c0.756-0.756,0.756-1.983,0-2.738l-6.844-6.844c-0.756-0.757-1.982-0.757-2.738,0L50,40.418l-19.85-19.85
	c-0.756-0.757-1.983-0.757-2.739,0l-6.843,6.844c-0.757,0.755-0.757,1.981,0,2.738L40.418,50l-19.85,19.852
	c-0.757,0.756-0.757,1.982,0,2.736l6.843,6.846c0.756,0.756,1.983,0.756,2.739,0L50,59.582l19.852,19.852
	c0.756,0.756,1.982,0.756,2.738,0l6.844-6.846c0.756-0.754,0.756-1.98,0-2.736L59.582,50z"/>
</svg>
